<svg width="14" height="15" viewBox="0 0 14 15" fill="none" xmlns="http://www.w3.org/2000/svg">
<path fill-rule="evenodd" clip-rule="evenodd" d="M7 14.5C10.866 14.5 14 11.366 14 7.5C14 3.63401 10.866 0.5 7 0.5C3.13401 0.5 0 3.63401 0 7.5C0 11.366 3.13401 14.5 7 14.5ZM8.03045 4.96967C7.73756 4.67678 7.26269 4.67678 6.96979 4.96967C6.6769 5.26256 6.6769 5.73744 6.96979 6.03033L7.68946 6.75L4.50012 6.75C4.08591 6.75 3.75012 7.08579 3.75012 7.5C3.75012 7.91421 4.08591 8.25 4.50012 8.25H7.68946L6.96979 8.96967C6.6769 9.26256 6.6769 9.73744 6.96979 10.0303C7.26269 10.3232 7.73756 10.3232 8.03045 10.0303L10.0305 8.03033C10.1022 7.95855 10.1564 7.87585 10.193 7.78757C10.2298 7.69901 10.2501 7.60188 10.2501 7.5L10.2499 7.48099C10.2475 7.38622 10.2276 7.29582 10.1932 7.21291C10.1566 7.12445 10.1024 7.04158 10.0305 6.96967L8.03045 4.96967Z" fill="#FAFAFA"/>
</svg>
