<svg width="39" height="40" viewBox="0 0 39 40" fill="none" xmlns="http://www.w3.org/2000/svg">
<path d="M16 25.5L22.7136 37.4886C22.8905 37.8044 23.2242 38 23.5861 38H35.2939C36.0579 38 36.5397 37.178 36.1664 36.5114L30.2736 25.9886C30.1036 25.685 30.1036 25.315 30.2736 25.0114L36.7207 13.4987C36.8938 13.1897 36.8904 12.8122 36.712 12.5063L30.8727 2.49607C30.4848 1.83114 29.5226 1.83544 29.1407 2.5038L16 25.5ZM16 25.5L9.87251 36.442C9.49066 37.1238 8.50934 37.1238 8.12749 36.442L2.27929 25.9987C2.10623 25.6897 2.10955 25.3122 2.28802 25.0063L8.13622 14.9808C8.5221 14.3193 9.4779 14.3193 9.86378 14.9808L16 25.5Z" stroke="#FAFAFA" stroke-width="2.5"/>
</svg>
